<?xml version="1.0" encoding="UTF-8"?>
<svg version="1.1" xmlns="http://www.w3.org/2000/svg" width="442" height="464">
<path d="M0 0 C9.013125 -0.020625 18.02625 -0.04125 27.3125 -0.0625 C30.11532471 -0.071604 32.91814941 -0.08070801 35.8059082 -0.09008789 C46.48397583 -0.11135987 57.15948267 -0.12615436 67.828125 0.37109375 C68.91018974 0.415438 68.91018974 0.415438 70.01411438 0.4606781 C88.5751249 1.5044905 104.78201231 11.41782944 117 25 C120.3090929 29.13065292 123.18386431 33.52124873 126 38 C126.66 38.99 127.32 39.98 128 41 C132.52723509 40.02226826 137.03804269 39.00751171 141.5234375 37.8515625 C163.2981269 32.30106328 185.69977295 28.88665134 208.19140625 28.796875 C209.90673805 28.78832489 209.90673805 28.78832489 211.65672302 28.77960205 C214.07118828 28.77020521 216.48566605 28.76363938 218.90014648 28.75976562 C222.50073292 28.7501647 226.10072145 28.71913276 229.70117188 28.6875 C259.42093311 28.55118017 288.82699478 32.26374084 317 42 C317.27199219 41.2678125 317.54398437 40.535625 317.82421875 39.78125 C324.72989676 23.44622428 340.27638634 11.39216341 356.15234375 4.6640625 C374.420956 -2.25103637 395.31780108 -0.12420543 414.5 -0.0625 C423.575 -0.041875 432.65 -0.02125 442 0 C442 18.81 442 37.62 442 57 C439.86803982 52.73607964 438.51473082 48.51073717 437.09765625 43.97265625 C436.017808 41.04822737 434.68849695 38.61211921 433 36 C433.41572266 37.11181641 433.41572266 37.11181641 433.83984375 38.24609375 C440.82144055 58.5449001 438.31745488 78.86370253 429 98 C425.77979458 103.93755594 422.22606336 109.58088931 417.875 114.75 C415.64133593 118.62168439 416.17746912 120.17165625 417.23388672 124.36767578 C418.67809955 129.32991375 420.41715476 134.18624266 422.125 139.0625 C429.85979284 161.75542223 435.75024912 185.23342956 439 209 C439.11569336 209.82886719 439.23138672 210.65773437 439.35058594 211.51171875 C441.82485787 230.21927031 441.19608212 249.17310001 441 268 C440.34 268.33 439.68 268.66 439 269 C438.91024902 268.40912598 438.82049805 267.81825195 438.72802734 267.20947266 C434.56452448 240.1804061 427.85632988 214.15102991 420 188 C415.8048581 188 413.68794102 190.28483709 410.5625 192.8125 C409.94431396 193.30516357 409.32612793 193.79782715 408.68920898 194.30541992 C403.46570084 198.5169778 398.50985961 202.98229409 393.6171875 207.5703125 C391.51938621 209.51782355 389.39690227 211.37088035 387.1875 213.1875 C384.16942094 215.75070111 381.6073831 218.55850513 379.0546875 221.58203125 C377.52893534 223.37754568 375.96542744 225.14111809 374.3828125 226.88671875 C346.48429985 257.90082534 331.92874028 296.57410086 317.11315918 334.8651123 C312.2766081 347.35268487 307.26932746 359.75105049 302 372.0625 C301.70256897 372.76145386 301.40513794 373.46040771 301.09869385 374.18054199 C299.12272752 378.81349085 297.09335963 383.41888168 295 388 C294.67499512 388.71307312 294.34999023 389.42614624 294.01513672 390.16082764 C293.00810898 392.34455063 291.97716499 394.51524431 290.9375 396.68359375 C290.63328125 397.34343765 290.3290625 398.00328156 290.015625 398.68312073 C287.74377962 403.31843868 285.26472317 406.04959598 281 409 C278 408.875 278 408.875 275 407 C258.31625369 388.15118738 256.90081775 356.95718795 255 333 C254.90831543 331.91589844 254.81663086 330.83179688 254.72216797 329.71484375 C252.96022575 307.98720429 252.78509482 286.24171037 252.7541275 264.45591354 C252.75007563 262.22906706 252.74258296 260.00225555 252.73431396 257.77542114 C252.65048443 231.82874156 253.52224857 205.95485931 256.8125 180.1875 C256.93797211 179.18402527 256.93797211 179.18402527 257.065979 178.16027832 C262.89371416 131.80655689 276.74915425 91.16293854 304 53 C258.07823202 41.12476977 185.42074089 31.78962956 141 54 C141.73863281 54.99515625 142.47726563 55.9903125 143.23828125 57.015625 C201.13269469 136.20917958 196.94564391 249.25612138 186.625 360.1875 C184.5759439 372.87541768 181.70815113 385.27416264 176.0625 396.875 C175.75094971 397.52307617 175.43939941 398.17115234 175.1184082 398.83886719 C172.73657056 403.41442281 170.16867765 406.10077339 166 409 C162.9375 408.8125 162.9375 408.8125 160 407 C156.30299214 402.09977222 153.59462714 396.47758061 151 390.9375 C150.62536621 390.14005371 150.25073242 389.34260742 149.86474609 388.52099609 C141.09139922 369.5760612 133.35467387 350.18357083 126.02172852 330.64404297 C106.77710814 279.43443278 83.1396516 231.33084014 39 197 C38.15260254 196.33726074 38.15260254 196.33726074 37.28808594 195.66113281 C30.93279084 190.37821165 30.93279084 190.37821165 24 186 C23.74605469 187.216875 23.49210937 188.43375 23.23046875 189.6875 C22.12569838 194.66041904 20.74004505 199.53273439 19.33447266 204.42773438 C15.82284086 216.70250659 12.75625725 229.00728234 10.125 241.5 C9.90766708 242.52480469 9.90766708 242.52480469 9.6859436 243.5703125 C7.83575205 252.33970992 6.26475257 261.12599839 5 270 C4.67 270 4.34 270 4 270 C0.06035903 239.56309637 4.0255428 207.70446531 11 178 C11.29777344 176.72576172 11.29777344 176.72576172 11.6015625 175.42578125 C15.63008871 158.53282802 21.05582865 141.97760876 27.93359375 126.03125 C29.00901176 122.97438414 29.5375935 121.1846015 29 118 C27.31098115 115.30454313 27.31098115 115.30454313 25 112.625 C10.24090613 93.97281712 5.52616532 73.49901769 7 50 C8.60292542 37.31981334 15.42117511 26.20654379 24 17 C11.44205739 26.08446912 4.13597703 42.17538131 1 57 C0.67 57 0.34 57 0 57 C0 38.19 0 19.38 0 0 Z M27 13 C26.01 14.485 26.01 14.485 25 16 C26.32 15.34 27.64 14.68 29 14 C28.34 13.67 27.68 13.34 27 13 Z M430 30 C431 32 431 32 431 32 Z M136.125 249 C133.05559009 254.45672873 133.91940107 260.25672928 135.16015625 266.15234375 C137.23024459 273.17138746 140.30040235 278.51954624 146.8125 282.125 C151.39014797 284.07499505 156.0722262 285.20926964 161 284 C162.89701809 282.42280251 163.89541793 281.20916414 165 279 C165.09170762 270.15938581 161.62694634 263.125249 155.765625 256.671875 C150.96408149 252.1252807 143.06813986 245.29699208 136.125 249 Z M284 263 C280.43657663 268.16394404 279.5566077 272.55910234 279.56640625 278.80078125 C280.09938578 281.50409184 280.76739327 282.4074408 283 284 C289.424539 285.43197556 295.57854432 283.44073553 301 280 C306.48973032 275.49100581 308.80124579 269.89283673 310 263 C310.73211698 256.13062805 310.73211698 256.13062805 308.7890625 249.6796875 C307.10921458 247.79187354 307.10921458 247.79187354 304.61328125 247.59765625 C295.81402437 248.95239984 289.06900435 256.16735588 284 263 Z " fill="#000000" transform="translate(0,0)"/>
<path d="M0 0 C-0.06510417 1.953125 -0.13020833 3.90625 -0.1953125 5.859375 C0.05091141 8.557989 0.39493714 9.77959132 2 12 C4.45688593 13.63201087 6.86266816 15.08083309 9.4375 16.5 C10.98587477 17.38279132 12.53269333 18.2683165 14.078125 19.15625 C14.88572266 19.61902344 15.69332031 20.08179688 16.52539062 20.55859375 C45.57582654 37.47984214 73.18801318 58.35938978 94 85 C94.70479492 85.8981543 94.70479492 85.8981543 95.42382812 86.81445312 C102.70308702 96.1436728 109.26414502 105.64840736 115 116 C115.44230957 116.79567383 115.88461914 117.59134766 116.34033203 118.41113281 C121.4947673 127.76567613 126.32373246 137.18339809 130.25 147.125 C130.54986816 147.87692627 130.84973633 148.62885254 131.15869141 149.40356445 C133.12733597 154.61799208 133.12733597 154.61799208 132 158 C130.30710619 156.50609009 128.62099368 155.00449502 126.9375 153.5 C125.99777344 152.6646875 125.05804688 151.829375 124.08984375 150.96875 C117.82566803 145.13767062 112.53723994 138.29520242 107.125 131.6875 C106.51350098 130.9440332 105.90200195 130.20056641 105.27197266 129.43457031 C102.67191537 126.27113297 100.08153236 123.10140267 97.515625 119.91015625 C92.08592345 113.16266217 86.34830122 106.7642428 80.39746094 100.4765625 C79.1679282 99.17743357 77.9465844 97.87056472 76.7265625 96.5625 C65.34263428 84.71305799 51.59730441 75.88163143 37.93261719 66.92382812 C32.69376317 63.48708406 27.47084141 60.02652142 22.25 56.5625 C21.26273926 55.9125708 20.27547852 55.2626416 19.25830078 54.59301758 C-3.74261153 39.34066733 -3.74261153 39.34066733 -7 31 C-7.33 28.69 -7.66 26.38 -8 24 C-13.94 23.01 -19.88 22.02 -26 21 C-23.96418808 12.85675234 -18.51475699 7.9935447 -12 3 C-8.12909606 0.68361414 -4.55352334 -0.41395667 0 0 Z " fill="#000000" transform="translate(30,291)"/>
<path d="M0 0 C6.1949301 0.38718313 9.98425374 2.43701746 15 6 C15.886875 6.598125 16.77375 7.19625 17.6875 7.8125 C20.8119384 10.76804983 23.12939769 14.12347521 25 18 C25 18.99 25 19.98 25 21 C19.39 21.99 13.78 22.98 8 24 C7.67 25.65 7.34 27.3 7 29 C2.36438023 41.43188938 -9.99172211 48.7095859 -20.6875 55.625 C-21.8661134 56.39873098 -23.04399699 57.17357469 -24.22119141 57.94946289 C-27.80730674 60.31014586 -31.40283469 62.65620152 -35 65 C-57.89745387 79.92564458 -78.8724051 95.63472464 -95.8984375 117.328125 C-98.35649637 120.45324074 -100.91924082 123.4761693 -103.5 126.5 C-106.86538503 130.44634215 -110.15040392 134.43677271 -113.375 138.5 C-117.00785295 142.96359609 -120.89001215 147.10330781 -124.9375 151.1875 C-125.50581543 151.765 -126.07413086 152.3425 -126.65966797 152.9375 C-130.75305681 157 -130.75305681 157 -133 157 C-131.72543873 150.30519923 -129.74586493 144.54242445 -126.875 138.375 C-126.47176514 137.499646 -126.06853027 136.62429199 -125.65307617 135.72241211 C-124.45172615 133.1401349 -123.23171437 130.56791601 -122 128 C-121.67757324 127.32630371 -121.35514648 126.65260742 -121.02294922 125.95849609 C-113.18720013 109.85851353 -102.8611368 94.40331137 -91 81 C-90.03513672 79.87271484 -90.03513672 79.87271484 -89.05078125 78.72265625 C-77.54477122 65.55101429 -65.12254212 53.32984305 -51 43 C-49.91903626 42.18911469 -48.83830625 41.3779177 -47.7578125 40.56640625 C-36.31257377 32.08687978 -24.04219081 24.81775382 -11.8359375 17.5 C-10.92823608 16.95206787 -10.92823608 16.95206787 -10.00219727 16.39306641 C-8.43880944 15.45110322 -6.87002117 14.51811893 -5.30078125 13.5859375 C-2.76357384 12.04646929 -2.76357384 12.04646929 -1 9 C-0.54605448 6.72087062 -0.54605448 6.72087062 -0.375 4.3125 C-0.30023438 3.50425781 -0.22546875 2.69601562 -0.1484375 1.86328125 C-0.07496094 0.94095703 -0.07496094 0.94095703 0 0 Z " fill="#000000" transform="translate(415,291)"/>
<path d="M0 0 C1.63494522 3.26989043 2.6987044 6.09967985 3.75 9.5625 C9.69650515 27.55505051 21.12411792 40.75217215 37.9375 49.3125 C44.10200028 52.35262702 50.23988225 54.6250608 57 56 C57 56.33 57 56.66 57 57 C38.19 57 19.38 57 0 57 C0 38.19 0 19.38 0 0 Z " fill="#000000" transform="translate(0,407)"/>
<path d="M0 0 C0.33 0 0.66 0 1 0 C1 18.81 1 37.62 1 57 C-17.81 57 -36.62 57 -56 57 C-56 56.67 -56 56.34 -56 56 C-55.14019531 55.79246094 -54.28039062 55.58492188 -53.39453125 55.37109375 C-36.19434174 50.8881654 -20.93871571 42.11720486 -11 27 C-6.00112441 18.45750236 -1.98255551 9.74756457 0 0 Z " fill="#000000" transform="translate(441,407)"/>
<path d="M0 0 C1.14210937 -0.01611328 2.28421875 -0.03222656 3.4609375 -0.04882812 C13.93169692 -0.05477742 27.23495463 1.09818088 35.1875 8.83203125 C39.60588361 13.9909962 40.09914468 17.53768786 40.02734375 24.19921875 C39.28028681 29.97984382 36.19176645 33.33168226 31.69140625 36.8046875 C29.71734395 38.10533674 27.72612143 39.23097974 25.625 40.3125 C24.5525 40.869375 23.48 41.42625 22.375 42 C6.67735809 47.49417467 -11.60902294 46.93321363 -26.8125 40.125 C-32.86028724 36.83707613 -37.71625855 31.70584573 -40.375 25.3125 C-41.21233955 20.62339854 -40.81963297 16.37557167 -38.625 12.125 C-33.57560605 4.95857969 -24.48083224 2.21400331 -16.21459961 0.6875 C-10.81863833 -0.02509535 -5.43498346 -0.01523258 0 0 Z " fill="#000000" transform="translate(222.375,416.6875)"/>
</svg>
